<?xml version="1.0" standalone="no"?>
<!DOCTYPE svg PUBLIC "-//W3C//DTD SVG 20010904//EN"
 "http://www.w3.org/TR/2001/REC-SVG-20010904/DTD/svg10.dtd">
<svg version="1.0" xmlns="http://www.w3.org/2000/svg"
 width="110.000000pt" height="52.000000pt" viewBox="0 0 110.000000 52.000000"
 preserveAspectRatio="xMidYMid meet">

<g transform="translate(0.000000,52.000000) scale(0.100000,-0.100000)"
fill="#000000" stroke="none">
<path d="M171 500 c-50 -12 -83 -41 -111 -96 -22 -43 -25 -62 -24 -149 0 -141
27 -199 109 -236 73 -33 180 -16 227 37 67 76 74 284 13 376 -39 59 -133 89
-214 68z m119 -65 c50 -26 65 -67 65 -180 0 -146 -32 -195 -128 -195 -40 0
-54 5 -77 28 -16 16 -34 49 -40 73 -16 56 -7 186 14 227 30 57 105 78 166 47z"/>
<path d="M482 483 c3 -10 29 -120 58 -245 l54 -228 38 0 c43 0 35 -20 89 215
17 77 35 146 38 152 4 7 26 -73 51 -178 l44 -190 39 3 40 3 58 240 c32 132 58
241 59 243 0 2 -15 2 -32 0 l-32 -3 -43 -180 c-23 -99 -44 -187 -46 -195 -2
-8 -25 74 -51 183 l-48 198 -36 -3 -36 -3 -45 -194 c-25 -106 -47 -188 -49
-181 -3 7 -23 95 -46 194 l-42 181 -33 3 c-28 3 -33 1 -29 -15z"/>
</g>
</svg>
