<?xml version="1.0" standalone="no"?>
<!DOCTYPE svg PUBLIC "-//W3C//DTD SVG 20010904//EN"
 "http://www.w3.org/TR/2001/REC-SVG-20010904/DTD/svg10.dtd">
<svg version="1.0" xmlns="http://www.w3.org/2000/svg"
 width="171.000000pt" height="171.000000pt" viewBox="0 0 171.000000 171.000000"
 preserveAspectRatio="xMidYMid meet">

<g transform="translate(0.000000,171.000000) scale(0.100000,-0.100000)"
fill="#000000" stroke="none">
<path d="M790 1280 l0 -420 65 0 65 0 0 420 0 420 -65 0 -65 0 0 -420z"/>
<path d="M489 1612 c-228 -114 -386 -309 -451 -557 -29 -110 -29 -297 0 -406
81 -301 308 -530 607 -610 112 -30 307 -30 420 0 294 77 529 312 606 606 29
110 30 307 1 416 -67 251 -245 462 -477 565 l-55 24 0 -74 0 -74 72 -42 c280
-167 411 -508 313 -817 -35 -110 -88 -196 -175 -283 -87 -87 -172 -139 -285
-177 -70 -23 -96 -27 -210 -27 -114 0 -140 4 -210 27 -293 97 -495 372 -495
673 0 70 25 193 55 266 54 133 182 279 299 339 l66 34 0 78 c0 42 -1 77 -2 77
-2 0 -37 -18 -79 -38z"/>
</g>
</svg>
