<?xml version="1.0" standalone="no"?>
<!DOCTYPE svg PUBLIC "-//W3C//DTD SVG 20010904//EN"
 "http://www.w3.org/TR/2001/REC-SVG-20010904/DTD/svg10.dtd">
<svg version="1.0" xmlns="http://www.w3.org/2000/svg"
 width="652.000000pt" height="956.000000pt" viewBox="0 0 652.000000 956.000000"
 preserveAspectRatio="xMidYMid meet">

<g transform="translate(0.000000,956.000000) scale(0.100000,-0.100000)"
fill="#000000" stroke="none">
<path d="M1150 9540 c-386 -6 -408 -8 -475 -29 -147 -48 -255 -115 -368 -226
-93 -91 -145 -159 -191 -250 -74 -146 -77 -163 -87 -455 -10 -318 -14 -7639
-4 -7725 25 -214 107 -394 245 -539 115 -121 227 -192 408 -260 l72 -28 2418
-1 c2586 -2 2582 -2 2716 47 254 92 492 346 573 611 17 58 18 211 18 4095 l0
4035 -23 75 c-61 193 -204 388 -368 501 -76 52 -226 118 -294 129 -36 6 -229
15 -430 20 -398 10 -3557 10 -4210 0z m4610 -328 c164 -59 291 -175 374 -339
l36 -73 0 -4016 0 -4016 -45 -88 c-25 -48 -70 -115 -101 -148 -64 -71 -175
-148 -242 -168 -103 -32 -400 -35 -2687 -32 -2180 3 -2282 4 -2335 22 -204 68
-363 240 -417 452 -17 65 -18 275 -18 3979 0 3785 1 3912 19 3980 24 91 84
207 140 271 55 62 182 152 244 171 27 8 121 18 222 22 96 5 1203 8 2460 7
l2285 -1 65 -23z"/>
<path d="M1434 8128 l-45 -41 3 -3291 c3 -3127 4 -3293 21 -3323 9 -18 29 -41
44 -50 26 -17 125 -18 1799 -18 1918 0 1808 -3 1834 54 7 14 16 67 21 116 5
50 9 789 9 1644 l0 1554 249 981 c358 1405 401 1581 401 1626 0 51 4 46 -414
468 l-321 322 -1778 0 -1777 0 -46 -42z m3636 -425 l165 -168 -185 -6 c-102
-4 -770 -7 -1485 -8 l-1300 -1 -145 148 c-80 81 -156 159 -170 175 l-23 27
1489 0 1490 0 164 -167z m-3078 -356 l31 -38 -147 -583 c-81 -320 -153 -602
-160 -626 -12 -39 -13 -23 -19 185 -9 291 -9 823 0 1123 l6 233 129 -128 c71
-70 143 -145 160 -166z m2900 -136 c278 -3 510 -9 513 -13 10 -10 3 -40 -305
-1260 l-280 -1107 0 -1565 0 -1566 -1565 0 -1565 0 0 1521 0 1520 310 1226
c171 675 313 1229 316 1232 14 14 1788 22 2576 12z"/>
<path d="M3765 6820 c-61 -25 -87 -94 -185 -473 -80 -315 -120 -493 -120 -540
0 -77 78 -141 163 -134 69 6 101 40 131 141 57 190 197 746 212 843 5 32 1 53
-19 96 -22 48 -30 57 -64 66 -44 13 -90 13 -118 1z"/>
<path d="M3098 3406 c-104 -37 -216 -134 -264 -227 -24 -47 -28 -71 -35 -184
-19 -311 -7 -500 37 -586 40 -80 113 -151 201 -195 l76 -39 151 0 151 0 68 34
c81 41 167 128 215 218 l32 61 0 302 0 302 -41 78 c-65 127 -156 201 -284 235
-73 19 -255 19 -307 1z m262 -311 c58 -30 64 -57 68 -301 4 -219 4 -222 -19
-253 -65 -88 -230 -95 -286 -13 -16 24 -18 55 -21 273 l-3 246 38 30 c21 17
45 33 53 36 25 11 137 -1 170 -18z"/>
</g>
</svg>
