<?xml version="1.0" standalone="no"?>
<!DOCTYPE svg PUBLIC "-//W3C//DTD SVG 20010904//EN"
 "http://www.w3.org/TR/2001/REC-SVG-20010904/DTD/svg10.dtd">
<svg version="1.0" xmlns="http://www.w3.org/2000/svg"
 width="171.000000pt" height="171.000000pt" viewBox="0 0 171.000000 171.000000"
 preserveAspectRatio="xMidYMid meet">

<g transform="translate(0.000000,171.000000) scale(0.100000,-0.100000)"
fill="#000000" stroke="none">
<path d="M818 1670 c-24 -15 -31 -77 -23 -221 8 -141 15 -159 64 -159 50 0 60
24 63 150 l3 115 30 -3 c172 -19 366 -132 472 -275 94 -129 133 -236 140 -392
6 -142 -12 -230 -73 -355 -82 -165 -236 -296 -419 -357 -71 -24 -95 -27 -215
-27 -118 0 -145 3 -212 26 -123 41 -204 92 -298 187 -68 68 -94 103 -127 171
-61 125 -76 203 -71 352 6 153 36 243 122 371 64 95 68 127 21 149 -39 17 -68
2 -113 -59 -94 -127 -150 -285 -159 -449 -23 -399 236 -749 632 -855 111 -30
297 -30 410 0 449 119 716 562 610 1011 -23 95 -105 254 -173 336 -111 131
-276 234 -442 274 -89 21 -213 26 -242 10z"/>
<path d="M452 1258 c-7 -7 -12 -17 -12 -23 0 -21 330 -469 358 -487 43 -28
106 -23 143 10 43 38 52 113 20 154 -20 25 -454 342 -484 354 -7 2 -18 -1 -25
-8z"/>
</g>
</svg>
